<?xml version="1.0" standalone="no"?>
<!DOCTYPE svg PUBLIC "-//W3C//DTD SVG 20010904//EN"
 "http://www.w3.org/TR/2001/REC-SVG-20010904/DTD/svg10.dtd">
<svg version="1.0" xmlns="http://www.w3.org/2000/svg"
 width="64.000000pt" height="64.000000pt" viewBox="0 0 64.000000 64.000000"
 preserveAspectRatio="xMidYMid meet">

<g transform="translate(0.000000,64.000000) scale(0.100000,-0.100000)"
fill="#000000" stroke="none">
<path d="M230 601 c-23 -24 -49 -41 -73 -45 -22 -4 -45 -18 -61 -37 -50 -59
-51 -59 224 -59 267 0 268 0 234 48 -17 24 -64 52 -89 52 -9 0 -33 18 -54 40
-35 37 -42 40 -91 40 -49 0 -56 -3 -90 -39z m155 -21 c18 -20 17 -20 -65 -20
-82 0 -83 0 -65 20 13 15 31 20 65 20 34 0 52 -5 65 -20z"/>
<path d="M115 378 c3 -24 10 -110 16 -193 8 -111 14 -154 26 -167 14 -16 36
-18 163 -18 127 0 149 2 163 18 12 13 18 56 26 167 6 83 13 169 16 193 l5 42
-210 0 -210 0 5 -42z m158 -153 c7 -104 2 -135 -21 -121 -11 6 -26 212 -16
227 18 29 30 -5 37 -106z m129 -1 c-4 -109 -10 -132 -32 -119 -8 5 -9 37 -4
113 7 115 10 125 27 119 9 -3 11 -37 9 -113z"/>
</g>
</svg>
