<?xml version="1.0" standalone="no"?>
<!DOCTYPE svg PUBLIC "-//W3C//DTD SVG 20010904//EN"
 "http://www.w3.org/TR/2001/REC-SVG-20010904/DTD/svg10.dtd">
<svg version="1.0" xmlns="http://www.w3.org/2000/svg"
 width="64.000000pt" height="64.000000pt" viewBox="0 0 64.000000 64.000000"
 preserveAspectRatio="xMidYMid meet">

<g transform="translate(0.000000,64.000000) scale(0.100000,-0.100000)"
fill="#000000" stroke="none">
<path d="M420 619 c-37 -22 -150 -128 -150 -141 0 -4 19 -11 43 -16 41 -8 43
-7 94 40 38 35 60 48 82 48 38 0 61 -23 61 -63 0 -26 -14 -45 -84 -114 -49
-49 -93 -83 -104 -83 -11 0 -34 8 -51 18 -24 13 -35 14 -48 6 -52 -32 4 -104
82 -104 64 0 86 11 166 87 86 81 129 144 129 190 0 113 -126 188 -220 132z"/>
<path d="M194 401 c-53 -39 -157 -149 -177 -188 -63 -121 75 -259 196 -196 33
17 157 130 157 144 0 4 -19 12 -42 17 -42 8 -44 7 -96 -40 -77 -69 -142 -62
-142 15 0 26 14 45 84 114 88 86 112 97 150 68 40 -30 84 -7 72 39 -8 31 -61
56 -119 56 -33 0 -54 -7 -83 -29z"/>
</g>
</svg>
