<?xml version="1.0" standalone="no"?>
<!DOCTYPE svg PUBLIC "-//W3C//DTD SVG 20010904//EN"
 "http://www.w3.org/TR/2001/REC-SVG-20010904/DTD/svg10.dtd">
<svg version="1.0" xmlns="http://www.w3.org/2000/svg"
 width="64.000000pt" height="64.000000pt" viewBox="0 0 64.000000 64.000000"
 preserveAspectRatio="xMidYMid meet">

<g transform="translate(0.000000,64.000000) scale(0.100000,-0.100000)"
fill="#000000" stroke="none">
<path d="M12 528 c-18 -18 -15 -36 7 -48 15 -7 23 -6 35 6 9 8 16 19 16 23 0
11 -23 31 -35 31 -6 0 -16 -5 -23 -12z"/>
<path d="M162 508 c3 -23 3 -23 228 -25 124 -2 231 1 239 6 8 5 11 16 8 25 -6
14 -35 16 -242 16 l-236 0 3 -22z"/>
<path d="M4 335 c-10 -25 4 -45 30 -45 25 0 39 20 30 45 -4 8 -17 15 -30 15
-14 0 -27 -7 -30 -15z"/>
<path d="M160 321 c0 -10 7 -22 16 -25 9 -3 109 -6 223 -6 158 0 212 3 226 13
42 32 8 37 -231 37 -223 0 -234 -1 -234 -19z"/>
<path d="M14 156 c-10 -8 -15 -20 -11 -30 9 -24 36 -31 53 -14 29 29 -8 68
-42 44z"/>
<path d="M167 153 c-4 -3 -7 -15 -7 -25 0 -17 14 -18 235 -18 207 0 236 2 242
16 3 9 0 20 -8 25 -16 10 -452 12 -462 2z"/>
</g>
</svg>
