<?xml version="1.0" standalone="no"?>
<!DOCTYPE svg PUBLIC "-//W3C//DTD SVG 20010904//EN"
 "http://www.w3.org/TR/2001/REC-SVG-20010904/DTD/svg10.dtd">
<svg version="1.0" xmlns="http://www.w3.org/2000/svg"
 width="64.000000pt" height="64.000000pt" viewBox="0 0 64.000000 64.000000"
 preserveAspectRatio="xMidYMid meet">

<g transform="translate(0.000000,64.000000) scale(0.100000,-0.100000)"
fill="#000000" stroke="none">
<path d="M59 621 c-24 -19 -24 -22 -27 -243 -2 -127 1 -235 7 -249 10 -28 174
-129 208 -129 31 0 60 28 67 65 l7 35 58 0 c41 0 65 5 81 18 38 31 40 157 2
150 -13 -2 -18 -17 -22 -58 l-5 -55 -57 -3 -58 -3 0 153 c0 103 -4 161 -13
178 -7 14 -43 43 -80 65 l-67 40 127 3 c70 1 133 0 140 -2 9 -4 13 -25 13 -61
0 -42 4 -57 16 -62 25 -9 35 17 31 81 -6 93 -12 96 -227 96 -160 0 -180 -2
-201 -19z"/>
<path d="M503 444 c-3 -8 -1 -20 6 -27 22 -22 9 -27 -79 -27 -83 0 -90 -1 -90
-20 0 -19 7 -20 92 -20 72 0 89 -3 80 -12 -15 -15 -16 -45 -2 -53 6 -4 32 14
57 40 l46 46 -43 44 c-48 49 -58 53 -67 29z"/>
</g>
</svg>
