<?xml version="1.0" standalone="no"?>
<!DOCTYPE svg PUBLIC "-//W3C//DTD SVG 20010904//EN"
 "http://www.w3.org/TR/2001/REC-SVG-20010904/DTD/svg10.dtd">
<svg version="1.0" xmlns="http://www.w3.org/2000/svg"
 width="64.000000pt" height="64.000000pt" viewBox="0 0 64.000000 64.000000"
 preserveAspectRatio="xMidYMid meet">

<g transform="translate(0.000000,64.000000) scale(0.100000,-0.100000)"
fill="#000000" stroke="none">
<path d="M250 571 c-71 -23 -131 -74 -166 -141 -25 -48 -26 -172 -1 -217 46
-86 120 -140 206 -150 63 -7 78 10 64 72 -13 59 -7 90 28 124 34 35 65 41 124
28 62 -14 79 1 72 65 -10 84 -64 160 -142 200 -43 22 -144 33 -185 19z m84
-67 c19 -18 20 -28 6 -55 -19 -35 -80 -18 -80 22 0 21 26 49 45 49 7 0 21 -7
29 -16z m144 -66 c7 -7 12 -21 12 -33 0 -29 -19 -45 -52 -45 -36 0 -56 36 -39
69 13 23 59 29 79 9z m-268 -13 c15 -18 10 -45 -12 -59 -35 -22 -74 27 -48 59
16 19 44 19 60 0z m-21 -134 c15 -27 -9 -56 -37 -47 -21 7 -31 44 -15 59 13
13 42 7 52 -12z"/>
</g>
</svg>
